<svg width="16" height="16" viewBox="0 0 16 16" fill="none" xmlns="http://www.w3.org/2000/svg">
<path d="M5.33333 12H10.6667V10.6666H5.33333V12ZM5.33333 9.33331H10.6667V7.99998H5.33333V9.33331ZM4 14.6666C3.63333 14.6666 3.31945 14.5361 3.05833 14.275C2.79722 14.0139 2.66667 13.7 2.66667 13.3333V2.66665C2.66667 2.29998 2.79722 1.98609 3.05833 1.72498C3.31945 1.46387 3.63333 1.33331 4 1.33331H9.33333L13.3333 5.33331V13.3333C13.3333 13.7 13.2028 14.0139 12.9417 14.275C12.6806 14.5361 12.3667 14.6666 12 14.6666H4ZM8.66667 5.99998H12L8.66667 2.66665V5.99998Z" fill="#E8EAED"/>
</svg>
