<svg width="18" height="18" viewBox="0 0 18 18" fill="none" xmlns="http://www.w3.org/2000/svg">
<g clip-path="url(#clip0_16_64)">
<path d="M6.09042 11.9623C6.09042 11.9623 5.33878 12.5332 6.51229 12.6542C8.0451 12.8043 9.2471 12.8342 11.3217 12.414C11.5233 12.6187 11.7704 12.7729 12.0427 12.8644C7.80464 14.1269 3.05608 12.985 6.09147 11.963L6.09042 11.9623Z" fill="#8ABF17"/>
<path d="M6.86559 9.91792C6.86559 9.91792 3.58938 10.7001 5.69313 10.9687C6.59489 11.089 8.36782 11.0587 10.0212 10.9389C11.3733 10.8183 12.7283 10.5789 12.7283 10.5789C12.7283 10.5789 12.2473 10.7898 11.9165 11.0007C8.58087 11.8726 2.17821 11.4817 4.01196 10.5789C5.57466 9.82722 6.86735 9.91792 6.86735 9.91792H6.86559Z" fill="#8ABF17"/>
<path d="M12.7268 13.1941C16.0927 11.4504 14.53 9.76849 13.4479 9.97837C13.1779 10.0385 13.057 10.0986 13.057 10.0986C13.1223 9.98282 13.2299 9.89678 13.3572 9.85849C15.4915 9.10685 17.1745 12.1124 12.6653 13.2841C12.6897 13.2572 12.71 13.2268 12.7258 13.1941H12.7268Z" fill="#8ABF17"/>
<path d="M6.54041 13.9159C6.54041 13.9159 5.84854 14.3378 7.02135 14.4569C8.43323 14.6369 9.18522 14.6071 10.7479 14.3068C11.062 14.4992 11.3942 14.6602 11.7397 14.7878C8.22405 16.2907 3.77432 14.6978 6.53971 13.9159H6.54041Z" fill="#8ABF17"/>
<path d="M14.3855 15.3879C14.3855 15.3879 14.8963 15.8098 13.8146 16.1395C11.8008 16.7414 5.36935 16.9214 3.56583 16.1395C2.93302 15.8695 4.13677 15.4786 4.52208 15.4181C4.91337 15.3281 5.12431 15.3281 5.12431 15.3281C4.43244 14.8472 0.525874 16.3199 3.1408 16.7403C10.3239 17.9125 16.2449 16.2295 14.3813 15.3879H14.3855Z" fill="#8ABF17"/>
<path d="M7.19853 17.9427C10.4442 18.1536 15.4036 17.8225 15.5235 16.2903C15.5235 16.2903 15.2834 16.8922 12.8488 17.3422C10.0834 17.853 6.65712 17.7922 4.64337 17.4628C4.64337 17.4628 5.06525 17.8228 7.19853 17.9437V17.9427Z" fill="#8ABF17"/>
<path d="M10.6881 0C10.6881 0 12.5514 1.89352 8.9152 4.74855C5.99969 7.06289 8.25426 8.38512 8.9152 9.8884C7.20168 8.35559 5.96981 7.00277 6.81145 5.73996C8.04227 3.87668 11.4398 2.98055 10.6881 0Z" fill="#8ABF17"/>
<path d="M9.73189 8.62591C10.6038 9.61767 9.49177 10.5194 9.49177 10.5194C9.49177 10.5194 11.7161 9.37755 10.6938 7.96462C9.76247 6.61216 9.04142 5.95087 12.948 3.69666C12.948 3.69666 6.78685 5.22947 9.73189 8.62591Z" fill="#8ABF17"/>
</g>
<defs>
<clipPath id="clip0_16_64">
<rect width="18" height="18" fill="white"/>
</clipPath>
</defs>
</svg>
