<svg width="16" height="16" viewBox="0 0 16 16" fill="none" xmlns="http://www.w3.org/2000/svg">
<g opacity="0.5">
<path d="M8 8.00001C8.36667 8.00001 8.68056 7.86945 8.94167 7.60834C9.20278 7.34723 9.33333 7.03334 9.33333 6.66668C9.33333 6.30001 9.20278 5.98612 8.94167 5.72501C8.68056 5.4639 8.36667 5.33334 8 5.33334C7.63333 5.33334 7.31945 5.4639 7.05833 5.72501C6.79722 5.98612 6.66667 6.30001 6.66667 6.66668C6.66667 7.03334 6.79722 7.34723 7.05833 7.60834C7.31945 7.86945 7.63333 8.00001 8 8.00001ZM8 14.6667C6.21111 13.1445 4.875 11.7306 3.99167 10.425C3.10833 9.11945 2.66667 7.91112 2.66667 6.80001C2.66667 5.13334 3.20278 3.80557 4.275 2.81668C5.34722 1.82779 6.58889 1.33334 8 1.33334C9.41111 1.33334 10.6528 1.82779 11.725 2.81668C12.7972 3.80557 13.3333 5.13334 13.3333 6.80001C13.3333 7.91112 12.8917 9.11945 12.0083 10.425C11.125 11.7306 9.78889 13.1445 8 14.6667Z" fill="#E8EAED"/>
</g>
</svg>
