<svg width="17" height="17" viewBox="0 0 17 17" fill="none" xmlns="http://www.w3.org/2000/svg">
<path d="M8.21512 8.11963L2.17896 15.591C2.24673 15.8748 2.36854 16.1365 2.53506 16.3562C2.70159 16.5759 2.90842 16.7476 3.13975 16.8584C3.37108 16.9691 3.62078 17.0159 3.86977 16.9952C4.11876 16.9745 4.36043 16.8868 4.57633 16.7388L11.3681 12.1688L8.21512 8.11963Z" fill="#EA4335"/>
<path d="M14.3187 6.84964L11.3816 4.86224L8.07568 8.28971L11.3951 12.1582L14.3098 10.1921C14.568 10.0324 14.7843 9.79218 14.9352 9.49758C15.0861 9.20299 15.1659 8.86521 15.1659 8.52086C15.1659 8.17651 15.0861 7.83874 14.9352 7.54414C14.7843 7.24954 14.568 7.00937 14.3098 6.84964H14.3187Z" fill="#FBBC04"/>
<path d="M2.17893 1.41345C2.14244 1.57281 2.12429 1.73725 2.12496 1.90233V15.102C2.12532 15.2671 2.14346 15.4313 2.17893 15.5909L8.42199 8.31089L2.17893 1.41345Z" fill="#4285F4"/>
<path d="M8.26009 8.50224L11.3816 4.86222L4.59882 0.271013C4.34365 0.0944532 4.05343 0.000942604 3.75771 3.80057e-06C3.40057 -0.000832345 3.053 0.13632 2.76797 0.390554C2.48294 0.644788 2.27609 1.00216 2.17896 1.40819L8.26009 8.50224Z" fill="#34A853"/>
</svg>
