<svg width="16" height="16" viewBox="0 0 16 16" fill="none" xmlns="http://www.w3.org/2000/svg">
<g clip-path="url(#clip0_32_231)">
<path d="M7.90625 2.66342e-06C7.29503 0.000793502 6.68495 0.0530616 6.0825 0.156253C4.46719 0.441565 4.17375 1.03875 4.17375 2.14032V3.59375H7.99031V4.07875H2.74063C1.63125 4.07875 0.660001 4.74563 0.356251 6.01407C0.00562593 7.46875 -0.00999907 8.375 0.356251 9.89438C0.627501 11.0244 1.27531 11.8297 2.38469 11.8297H3.69719V10.0856C3.69719 8.82563 4.78719 7.71438 6.08188 7.71438H9.89438C10.9569 7.71438 11.8028 6.83938 11.8028 5.77469V2.14C11.8028 1.10563 10.9303 0.327503 9.89438 0.15594C9.2372 0.0484446 8.57215 -0.00371757 7.90625 2.66342e-06ZM5.84375 1.17032C5.98792 1.16858 6.12935 1.20972 6.25009 1.28852C6.37083 1.36731 6.46543 1.48021 6.52189 1.61287C6.57835 1.74553 6.59412 1.89197 6.5672 2.03361C6.54028 2.17525 6.47188 2.3057 6.37068 2.40839C6.26948 2.51109 6.14005 2.5814 5.99882 2.6104C5.85759 2.63939 5.71093 2.62577 5.57746 2.57127C5.44398 2.51676 5.32971 2.42382 5.24915 2.30425C5.1686 2.18468 5.12538 2.04387 5.125 1.89969C5.12358 1.70803 5.19822 1.52363 5.33254 1.38691C5.46686 1.25018 5.64991 1.1723 5.84156 1.17032H5.84375Z" fill="#8ABF17"/>
<path d="M12.2791 4.07971V5.77471C12.2791 7.08877 11.165 8.19502 9.89438 8.19502H6.08188C5.0375 8.19502 4.17313 9.08877 4.17313 10.1347V13.7694C4.17313 14.8038 5.07281 15.4122 6.08188 15.7091C7.29 16.0644 8.44875 16.1285 9.89438 15.7091C10.8553 15.4306 11.8028 14.871 11.8028 13.7694V12.3144H7.99031V11.8297H13.7116C14.8209 11.8297 15.2344 11.0556 15.62 9.8944C16.0184 8.69877 16.0016 7.54877 15.62 6.01502C15.3459 4.91065 14.8222 4.07971 13.7116 4.07971H12.2791ZM10.1347 13.2844C10.2791 13.2822 10.421 13.323 10.5421 13.4017C10.6633 13.4804 10.7583 13.5933 10.815 13.7262C10.8717 13.8591 10.8876 14.0058 10.8606 14.1477C10.8336 14.2897 10.765 14.4203 10.6635 14.5231C10.5619 14.6259 10.4321 14.6961 10.2905 14.7248C10.1489 14.7535 10.002 14.7394 9.86846 14.6843C9.73491 14.6292 9.62079 14.5356 9.54065 14.4154C9.4605 14.2952 9.41796 14.1539 9.41844 14.0094C9.41762 13.9147 9.43551 13.8208 9.47111 13.733C9.5067 13.6452 9.55929 13.5654 9.62585 13.498C9.69241 13.4306 9.77163 13.3771 9.85895 13.3404C9.94628 13.3038 10.04 13.2847 10.1347 13.2844Z" fill="#8ABF17"/>
</g>
<defs>
<clipPath id="clip0_32_231">
<rect width="16" height="16" fill="white"/>
</clipPath>
</defs>
</svg>
