<svg width="17" height="17" viewBox="0 0 17 17" fill="none" xmlns="http://www.w3.org/2000/svg">
<g clip-path="url(#clip0_188_10)">
<path d="M8.5 17C7.32417 17 6.21917 16.7769 5.185 16.3306C4.15083 15.8844 3.25125 15.2788 2.48625 14.5138C1.72125 13.7488 1.11563 12.8492 0.669375 11.815C0.223125 10.7808 0 9.67583 0 8.5C0 7.32417 0.223125 6.21917 0.669375 5.185C1.11563 4.15083 1.72125 3.25125 2.48625 2.48625C3.25125 1.72125 4.15083 1.11563 5.185 0.669375C6.21917 0.223125 7.32417 0 8.5 0C9.67583 0 10.7808 0.223125 11.815 0.669375C12.8492 1.11563 13.7488 1.72125 14.5138 2.48625C15.2788 3.25125 15.8844 4.15083 16.3306 5.185C16.7769 6.21917 17 7.32417 17 8.5C17 9.67583 16.7769 10.7808 16.3306 11.815C15.8844 12.8492 15.2788 13.7488 14.5138 14.5138C13.7488 15.2788 12.8492 15.8844 11.815 16.3306C10.7808 16.7769 9.67583 17 8.5 17ZM7.65 15.2575V13.6C7.1825 13.6 6.78229 13.4335 6.44938 13.1006C6.11646 12.7677 5.95 12.3675 5.95 11.9V11.05L1.87 6.97C1.8275 7.225 1.78854 7.48 1.75313 7.735C1.71771 7.99 1.7 8.245 1.7 8.5C1.7 10.2142 2.26313 11.7158 3.38938 13.005C4.51563 14.2942 5.93583 15.045 7.65 15.2575ZM13.515 13.09C14.0958 12.4525 14.5385 11.7406 14.8431 10.9544C15.1477 10.1681 15.3 9.35 15.3 8.5C15.3 7.11167 14.914 5.84375 14.1419 4.69625C13.3698 3.54875 12.3392 2.72 11.05 2.21V2.55C11.05 3.0175 10.8835 3.41771 10.5506 3.75063C10.2177 4.08354 9.8175 4.25 9.35 4.25H7.65V5.95C7.65 6.19083 7.56854 6.39271 7.40563 6.55563C7.24271 6.71854 7.04083 6.8 6.8 6.8H5.1V8.5H10.2C10.4408 8.5 10.6427 8.58146 10.8056 8.74438C10.9685 8.90729 11.05 9.10917 11.05 9.35V11.9H11.9C12.2683 11.9 12.6013 12.0098 12.8988 12.2294C13.1963 12.449 13.4017 12.7358 13.515 13.09Z" fill="#5985E1"/>
</g>
<defs>
<clipPath id="clip0_188_10">
<rect width="17" height="17" fill="white"/>
</clipPath>
</defs>
</svg>
