<svg viewBox="0 0 128 128" fill="none" xmlns="http://www.w3.org/2000/svg">
<g clip-path="url(#clip0_193_38)">
<path d="M64 106.667L49.7778 92.4445H78.2222L64 106.667Z" fill="#6D980F"/>
<path d="M64 71.1111L42.6667 92.4444H85.3333L64 71.1111Z" fill="#ABDB42"/>
<path d="M0 35.5555H28.4444V128L14.2222 49.7778L0 35.5555Z" fill="#DE44B0"/>
<path d="M42.6667 49.7776L28.4444 128V35.5555L56.8889 35.5557L42.6667 49.7776Z" fill="#9A006C"/>
<path d="M0 35.5556L14.2222 0L28.4444 21.3333L42.6667 0L56.8889 35.5556H0Z" fill="#1CBCC1"/>
<path d="M71.1111 35.5555H99.5556V128L85.3333 49.7778L71.1111 35.5555Z" fill="#9A006C"/>
<path d="M113.778 49.7776L99.5556 128V35.5555L128 35.5557L113.778 49.7776Z" fill="#DE44B0"/>
<path d="M71.1111 35.5556L85.3333 0L99.5556 21.3333L113.778 0L128 35.5556H71.1111Z" fill="#1CBCC1"/>
</g>
<defs>
<clipPath id="clip0_193_38">
<rect width="128" height="128" fill="white"/>
</clipPath>
</defs>
</svg>
