<?xml version="1.0" encoding="UTF-8" standalone="no"?>
<svg
   id="Layer_1"
   data-name="Layer 1"
   viewBox="0 0 82 82"
   version="1.1"
   width="82"
   height="82"
   xmlns="http://www.w3.org/2000/svg"
   xmlns:svg="http://www.w3.org/2000/svg">
  <defs
     id="defs1">
    <style
       id="style1">
      .cls-1 {
        fill: #c7b455;
      }

      .cls-2 {
        fill: #005140;
      }
    </style>
  </defs>
  <g
     id="g5"
     transform="matrix(0.29883455,0,0,0.29883455,-8.2489643,-5.3771492)">
    <rect
       style="fill:#005140;fill-opacity:1;stroke-width:0"
       id="rect5"
       width="82"
       height="82"
       x="0"
       y="0"
       transform="matrix(3.3463333,0,0,3.3463333,27.603784,17.993733)" />
    <g
       id="g6"
       transform="matrix(0.58214422,0,0,0.58214422,15.787626,9.5292711)">
      <path
         id="text3"
         class="cls-1"
         d="m 244.04,86.01 c -1.43,0 -2.52,-0.38 -3.27,-1.13 -0.75,-0.75 -1.13,-1.86 -1.13,-3.33 V 53.67 c 0,-1.5 0.38,-2.64 1.13,-3.43 0.75,-0.82 1.74,-1.23 2.97,-1.23 1.09,0 1.94,0.2 2.56,0.61 0.61,0.41 1.3,1.09 2.05,2.05 l 16.22,20.26 h -1.43 V 53.41 c 0,-1.43 0.36,-2.52 1.07,-3.27 0.75,-0.75 1.84,-1.13 3.27,-1.13 1.43,0 2.51,0.38 3.22,1.13 0.75,0.75 1.13,1.84 1.13,3.27 v 28.34 c 0,1.3 -0.34,2.34 -1.02,3.12 -0.68,0.75 -1.6,1.13 -2.76,1.13 -1.16,0 -2.08,-0.2 -2.76,-0.61 -0.65,-0.44 -1.35,-1.13 -2.1,-2.05 L 246.97,63.03 h 1.43 v 18.52 c 0,1.47 -0.38,2.58 -1.13,3.33 -0.72,0.75 -1.79,1.13 -3.22,1.13 z" />
      <path
         id="text4"
         class="cls-1"
         d="m 262.61,451.42 c -3.14,0 -5.93,-0.61 -8.39,-1.84 -2.42,-1.23 -4.42,-2.97 -5.99,-5.22 -1.53,-2.25 -2.56,-4.89 -3.07,-7.93 h -5.27 v 10.08 c 0,1.53 -0.39,2.73 -1.18,3.58 -0.78,0.82 -1.96,1.23 -3.53,1.23 -1.57,0 -2.66,-0.41 -3.48,-1.23 -0.82,-0.85 -1.23,-2.05 -1.23,-3.58 v -27.37 c 0,-1.57 0.41,-2.76 1.23,-3.58 0.82,-0.82 1.98,-1.23 3.48,-1.23 1.5,0 2.69,0.41 3.48,1.23 0.82,0.82 1.23,2.01 1.23,3.58 v 9.57 h 5.32 c 0.55,-2.97 1.59,-5.53 3.12,-7.67 1.57,-2.18 3.56,-3.85 5.99,-5.01 2.42,-1.19 5.18,-1.79 8.29,-1.79 3.62,0 6.75,0.77 9.41,2.3 2.69,1.53 4.77,3.7 6.24,6.5 1.5,2.76 2.25,6.02 2.25,9.77 0,2.8 -0.44,5.34 -1.33,7.62 -0.85,2.29 -2.06,4.26 -3.63,5.93 -1.53,1.64 -3.41,2.9 -5.63,3.79 -2.18,0.85 -4.62,1.28 -7.32,1.28 z m 0.05,-7.88 c 1.71,0 3.15,-0.43 4.35,-1.28 1.19,-0.85 2.11,-2.08 2.76,-3.68 0.65,-1.6 0.97,-3.53 0.97,-5.78 0,-3.38 -0.72,-6 -2.15,-7.88 -1.4,-1.88 -3.38,-2.81 -5.93,-2.81 -1.71,0 -3.17,0.43 -4.4,1.28 -1.19,0.82 -2.11,2.03 -2.76,3.63 -0.61,1.57 -0.92,3.5 -0.92,5.78 0,3.38 0.72,6.02 2.15,7.93 1.43,1.88 3.41,2.81 5.93,2.81 z" />
      <path
         id="text2"
         class="cls-1"
         d="m 420.89,261.85 c 4.14,-1.51 7.71,-3.21 10.73,-5.11 0.03,-0.03 0.04,-0.05 0.04,-0.08 0,-0.05 -0.03,-0.08 -0.08,-0.08 h -6.95 c -0.6,0 -1.12,-0.22 -1.56,-0.66 -0.44,-0.44 -0.66,-0.96 -0.66,-1.56 v -10.93 c 0,-0.6 0.22,-1.12 0.66,-1.56 0.44,-0.44 0.96,-0.66 1.56,-0.66 h 9.48 c 0.21,0 0.31,-0.1 0.31,-0.31 v -1.01 c 0,-0.21 -0.1,-0.31 -0.31,-0.31 h -12.1 c -0.6,0 -1.12,-0.22 -1.56,-0.66 -0.44,-0.44 -0.66,-0.96 -0.66,-1.56 v -0.31 c 0,-0.6 0.22,-1.12 0.66,-1.56 0.44,-0.44 0.96,-0.66 1.56,-0.66 h 12.1 c 0.21,0 0.31,-0.1 0.31,-0.31 v -0.23 c 0,-0.6 0.22,-1.12 0.66,-1.56 0.44,-0.44 0.96,-0.66 1.56,-0.66 h 1.95 c 0.6,0 1.12,0.22 1.56,0.66 0.44,0.44 0.66,0.96 0.66,1.56 v 0.23 c 0,0.21 0.1,0.31 0.31,0.31 h 12.1 c 0.6,0 1.12,0.22 1.56,0.66 0.44,0.44 0.66,0.96 0.66,1.56 v 0.31 c 0,0.6 -0.22,1.12 -0.66,1.56 -0.44,0.44 -0.96,0.66 -1.56,0.66 h -12.1 c -0.21,0 -0.31,0.1 -0.31,0.31 v 1.01 c 0,0.21 0.1,0.31 0.31,0.31 h 9.48 c 0.6,0 1.12,0.22 1.56,0.66 0.44,0.44 0.66,0.96 0.66,1.56 v 10.93 c 0,0.6 -0.22,1.12 -0.66,1.56 -0.44,0.44 -0.96,0.66 -1.56,0.66 h -6.95 c -0.05,0 -0.08,0.03 -0.08,0.08 0,0.03 0.01,0.05 0.04,0.08 3.02,1.9 6.6,3.6 10.73,5.11 0.55,0.21 0.94,0.59 1.17,1.13 0.26,0.55 0.26,1.08 0,1.6 l -0.55,1.17 c -0.26,0.57 -0.69,0.96 -1.29,1.17 -0.57,0.23 -1.14,0.22 -1.72,-0.04 -4.21,-1.8 -7.86,-3.82 -10.93,-6.09 -0.16,-0.1 -0.23,-0.05 -0.23,0.16 v 4.92 c 0,0.6 -0.22,1.12 -0.66,1.56 -0.44,0.44 -0.96,0.66 -1.56,0.66 h -1.95 c -0.6,0 -1.12,-0.22 -1.56,-0.66 -0.44,-0.44 -0.66,-0.96 -0.66,-1.56 v -4.92 c 0,-0.21 -0.09,-0.25 -0.27,-0.12 -3.07,2.26 -6.71,4.29 -10.93,6.09 -0.57,0.26 -1.14,0.27 -1.72,0.04 -0.57,-0.23 -0.99,-0.64 -1.25,-1.21 l -0.55,-1.17 c -0.23,-0.55 -0.23,-1.08 0,-1.6 0.23,-0.55 0.62,-0.92 1.17,-1.13 v 0 z m 19.94,-16.12 v 1.13 c 0,0.23 0.1,0.35 0.31,0.35 h 5.62 c 0.23,0 0.35,-0.12 0.35,-0.35 v -1.13 c 0,-0.23 -0.12,-0.35 -0.35,-0.35 h -5.62 c -0.21,0 -0.31,0.12 -0.31,0.35 z m 0,5.38 v 1.21 c 0,0.23 0.1,0.35 0.31,0.35 h 5.62 c 0.23,0 0.35,-0.12 0.35,-0.35 v -1.21 c 0,-0.23 -0.12,-0.35 -0.35,-0.35 h -5.62 c -0.21,0 -0.31,0.12 -0.31,0.35 z m -12.64,-5.38 v 1.13 c 0,0.23 0.1,0.35 0.31,0.35 h 5.62 c 0.21,0 0.31,-0.12 0.31,-0.35 v -1.13 c 0,-0.23 -0.1,-0.35 -0.31,-0.35 h -5.62 c -0.21,0 -0.31,0.12 -0.31,0.35 z m 0.31,6.95 h 5.62 c 0.21,0 0.31,-0.12 0.31,-0.35 v -1.21 c 0,-0.23 -0.1,-0.35 -0.31,-0.35 h -5.62 c -0.21,0 -0.31,0.12 -0.31,0.35 v 1.21 c 0,0.23 0.1,0.35 0.31,0.35 z" />
      <path
         id="text1"
         class="cls-1"
         d="m 82.35,250.06 c 0,-8.01 -2.86,-12.02 -8.59,-12.02 -5.73,0 -8.59,4.01 -8.59,12.02 0,8.01 2.86,12.02 8.59,12.02 5.73,0 8.59,-4.01 8.59,-12.02 z m 4.19,14.12 c -3.14,3.38 -7.4,5.06 -12.79,5.06 -5.39,0 -9.65,-1.69 -12.79,-5.06 -3.14,-3.41 -4.71,-8.12 -4.71,-14.12 0,-6 1.57,-10.69 4.71,-14.07 3.14,-3.41 7.4,-5.12 12.79,-5.12 5.39,0 9.65,1.71 12.79,5.12 3.14,3.38 4.71,8.07 4.71,14.07 0,6 -1.57,10.71 -4.71,14.12 z" />
      <path
         id="path17"
         class="cls-1"
         d="m 251.24,221.92 -1,3.25 c -4.77,15.57 -4.77,34.2 0,49.78 l 1,3.25 c 1.81,5.9 6.71,5.9 8.52,0 l 1,-3.25 c 4.77,-15.57 4.77,-34.2 0,-49.78 l -1,-3.25 c -1.81,-5.9 -6.71,-5.9 -8.52,0" />
      <path
         class="cls-1"
         d="m 233.24,208.72 -103.53,26.1 c -26.52,8.38 -26.52,22.1 0,30.48 l 103.53,26.1 c 14.49,4.58 30.03,4.58 44.52,0 l 103.53,-26.1 c 26.52,-8.38 26.52,-22.1 0,-30.48 l -103.53,-26.1 c -14.49,-4.58 -30.03,-4.58 -44.52,0 z m 63.96,37.06 c 2.63,26.51 -19.47,48.61 -45.98,45.98 -19.62,-1.94 -35.48,-17.81 -37.43,-37.43 -2.63,-26.51 19.47,-48.61 45.98,-45.98 19.62,1.94 35.48,17.81 37.43,37.43 z"
         id="path2" />
      <path
         class="cls-1"
         d="m 296.84,227.8 -26.1,-103.53 c -8.38,-26.52 -22.1,-26.52 -30.48,0 l -26.1,103.53 c -4.58,14.49 -4.58,30.03 0,44.52 l 26.1,103.53 c 8.38,26.52 22.1,26.52 30.48,0 l 26.1,-103.53 c 4.58,-14.49 4.58,-30.03 0,-44.52 z m -37.06,63.97 c -26.51,2.63 -48.61,-19.47 -45.98,-45.98 1.94,-19.62 17.81,-35.48 37.43,-37.43 26.51,-2.63 48.61,19.47 45.98,45.98 -1.94,19.62 -17.81,35.48 -37.43,37.43 z"
         id="path3" />
      <path
         class="cls-1"
         d="m 210.26,232.11 -99.71,144.43 c -7.93,12.1 6.37,26.41 18.48,18.48 l 144.43,-99.71 c 10.87,-7.12 20.16,-16.41 27.29,-27.29 l 99.71,-144.43 c 7.93,-12.1 -6.37,-26.41 -18.48,-18.48 l -144.43,99.71 c -10.87,7.12 -20.16,16.41 -27.29,27.29 z m 74.88,-11.69 c 16.37,16.37 16.37,42.91 0,59.28 -16.37,16.37 -42.91,16.37 -59.28,0 -16.37,-16.37 -16.37,-42.91 0,-59.28 16.37,-16.37 42.91,-16.37 59.28,0 z"
         id="path4" />
      <path
         class="cls-1"
         d="m 300.74,232.11 99.71,144.43 c 7.93,12.1 -6.37,26.41 -18.48,18.48 L 237.54,295.31 c -10.87,-7.12 -20.16,-16.41 -27.29,-27.29 l -99.7,-144.43 c -7.93,-12.1 6.37,-26.41 18.48,-18.48 l 144.43,99.71 c 10.87,7.12 20.16,16.41 27.29,27.29 z m -74.88,-11.69 c -16.37,16.37 -16.37,42.91 0,59.28 16.37,16.37 42.91,16.37 59.28,0 16.37,-16.37 16.37,-42.91 0,-59.28 -16.37,-16.37 -42.91,-16.37 -59.28,0 z"
         id="path5" />
    </g>
  </g>
</svg>
