<svg width="82" height="82" viewBox="0 0 82 82" fill="none" xmlns="http://www.w3.org/2000/svg">
<rect width="82" height="82" fill="#024059"/>
<path d="M21.5016 43.5158L37.3668 34.2001C37.5091 34.1164 37.6711 34.072 37.8362 34.0712C38.0013 34.0704 38.1637 34.1133 38.3069 34.1956C38.45 34.2779 38.5689 34.3966 38.6513 34.5396C38.7337 34.6827 38.7769 34.845 38.7763 35.0101V35.0344C38.7773 35.1981 38.7351 35.3592 38.654 35.5014C38.573 35.6436 38.4559 35.7619 38.3145 35.8445L22.4494 45.1562C22.307 45.2398 22.145 45.2843 21.9799 45.2851C21.8148 45.2859 21.6524 45.243 21.5093 45.1607C21.3661 45.0784 21.2473 44.9597 21.1648 44.8167C21.0824 44.6736 21.0393 44.5113 21.0399 44.3461V44.3178C21.0411 44.1556 21.0843 43.9966 21.1652 43.856C21.2461 43.7155 21.362 43.5983 21.5016 43.5158Z" fill="white"/>
<path d="M21.5016 39.6114L37.3668 30.2956C37.5091 30.212 37.6711 30.1675 37.8362 30.1668C38.0013 30.166 38.1637 30.2089 38.3069 30.2912C38.45 30.3734 38.5689 30.4921 38.6513 30.6352C38.7337 30.7783 38.7769 30.9406 38.7763 31.1057V31.13C38.7773 31.2937 38.7351 31.4548 38.654 31.597C38.573 31.7392 38.4559 31.8575 38.3145 31.9401L22.4494 41.2558C22.307 41.3395 22.145 41.3839 21.9799 41.3847C21.8148 41.3855 21.6524 41.3426 21.5093 41.2603C21.3661 41.178 21.2473 41.0593 21.1648 40.9163C21.0824 40.7732 21.0393 40.6109 21.0399 40.4458V40.4174C21.0404 40.2546 21.0832 40.0947 21.1642 39.9534C21.2451 39.8121 21.3614 39.6942 21.5016 39.6114Z" fill="white"/>
<path d="M21.5016 35.6176L37.3668 26.3019C37.5092 26.2182 37.6711 26.1738 37.8362 26.173C38.0014 26.1722 38.1637 26.2151 38.3069 26.2974C38.45 26.3797 38.5689 26.4984 38.6513 26.6414C38.7338 26.7845 38.7769 26.9468 38.7763 27.1119C38.7765 27.2755 38.734 27.4362 38.653 27.5783C38.572 27.7203 38.4554 27.8388 38.3146 27.922L22.4494 37.2378C22.307 37.3214 22.1451 37.3659 21.98 37.3667C21.8148 37.3674 21.6525 37.3245 21.5093 37.2422C21.3661 37.16 21.2473 37.0413 21.1649 36.8982C21.0824 36.7552 21.0393 36.5928 21.0399 36.4277C21.0385 36.2639 21.0805 36.1027 21.1616 35.9604C21.2427 35.8181 21.36 35.6999 21.5016 35.6176Z" fill="white"/>
<path d="M21.5016 31.6806L37.3668 22.3649C37.5091 22.2812 37.6711 22.2368 37.8362 22.236C38.0013 22.2352 38.1637 22.2781 38.3069 22.3604C38.45 22.4427 38.5689 22.5614 38.6513 22.7044C38.7337 22.8475 38.7769 23.0098 38.7763 23.1749V23.1992C38.7773 23.3629 38.7351 23.524 38.654 23.6662C38.573 23.8084 38.4559 23.9267 38.3145 24.0093L22.4494 33.3251C22.307 33.4087 22.145 33.4532 21.9799 33.4539C21.8148 33.4547 21.6524 33.4118 21.5093 33.3295C21.3661 33.2473 21.2473 33.1286 21.1648 32.9855C21.0824 32.8424 21.0393 32.6801 21.0399 32.515V32.4866C21.0404 32.3238 21.0832 32.1639 21.1642 32.0226C21.2451 31.8813 21.3614 31.7634 21.5016 31.6806Z" fill="white"/>
<path d="M21.5016 27.7358L37.3668 18.4038C37.5091 18.3202 37.6711 18.2757 37.8362 18.2749C38.0013 18.2741 38.1637 18.3171 38.3069 18.3993C38.45 18.4816 38.5689 18.6003 38.6513 18.7434C38.7337 18.8864 38.7769 19.0487 38.7763 19.2139V19.2382C38.7773 19.4019 38.7351 19.5629 38.654 19.7051C38.573 19.8473 38.4559 19.9657 38.3145 20.0482L22.4494 29.364C22.307 29.4476 22.145 29.4921 21.9799 29.4929C21.8148 29.4937 21.6524 29.4507 21.5093 29.3685C21.3661 29.2862 21.2473 29.1675 21.1648 29.0244C21.0824 28.8814 21.0393 28.719 21.0399 28.5539V28.5256C21.0432 28.3655 21.0873 28.2089 21.1681 28.0707C21.2489 27.9325 21.3637 27.8172 21.5016 27.7358Z" fill="white"/>
<path d="M21.1857 23.2926L28.6302 18.9142C28.7732 18.8278 28.9366 18.781 29.1036 18.7788C29.2706 18.7765 29.4352 18.8188 29.5805 18.9014C29.7257 18.9839 29.8463 19.1036 29.9299 19.2483C30.0135 19.3929 30.057 19.5572 30.0559 19.7242C30.0586 19.8864 30.0189 20.0464 29.9407 20.1884C29.8626 20.3305 29.7487 20.4497 29.6104 20.5343L22.1659 24.8844C22.0235 24.9725 21.8599 25.0206 21.6925 25.0236C21.5251 25.0267 21.3599 24.9845 21.2144 24.9016C21.0689 24.8187 20.9484 24.6981 20.8657 24.5525C20.7829 24.4069 20.741 24.2417 20.7442 24.0743C20.7456 23.9173 20.7868 23.7632 20.8641 23.6265C20.9413 23.4897 21.0519 23.3749 21.1857 23.2926Z" fill="white"/>
<path d="M59.0239 24.2403L60.239 24.9005C60.384 24.9809 60.5053 25.0981 60.5906 25.2404C60.676 25.3826 60.7223 25.5448 60.725 25.7106V44.1639C60.7244 44.3259 60.6815 44.485 60.6006 44.6254C60.5197 44.7658 60.4036 44.8827 60.2637 44.9645C60.1238 45.0463 59.965 45.0902 59.803 45.0918C59.641 45.0935 59.4813 45.0529 59.3398 44.974L58.1247 44.2976C57.9801 44.2169 57.8594 44.0996 57.7748 43.9573C57.6901 43.8151 57.6446 43.653 57.6427 43.4875V25.0585C57.6423 24.8963 57.6842 24.7369 57.7644 24.5959C57.8445 24.455 57.96 24.3373 58.0995 24.2547C58.239 24.1721 58.3976 24.1273 58.5598 24.1247C58.7219 24.1222 58.8819 24.1621 59.0239 24.2403Z" fill="white"/>
<path d="M54.4349 26.237L55.65 26.9013C55.7969 26.9799 55.92 27.0965 56.0062 27.2391C56.0925 27.3816 56.1387 27.5448 56.1401 27.7114V41.5878C56.1387 41.75 56.0952 41.909 56.0138 42.0492C55.9324 42.1895 55.8159 42.3062 55.6758 42.3879C55.5357 42.4695 55.3768 42.5134 55.2147 42.5152C55.0525 42.5169 54.8927 42.4765 54.7509 42.3979L53.5358 41.7215C53.3912 41.6409 53.2705 41.5235 53.1858 41.3812C53.1012 41.239 53.0556 41.0769 53.0538 40.9114V27.0552C53.0546 26.8935 53.0972 26.7348 53.1776 26.5945C53.258 26.4542 53.3734 26.3372 53.5125 26.2548C53.6516 26.1724 53.8097 26.1274 53.9714 26.1243C54.1331 26.1212 54.2928 26.16 54.4349 26.237Z" fill="white"/>
<path d="M49.8419 21.1215L51.057 21.7857C51.2029 21.8651 51.3249 21.9821 51.4103 22.1246C51.4958 22.267 51.5416 22.4297 51.543 22.5958V38.4528C51.5424 38.6149 51.4995 38.7739 51.4186 38.9143C51.3377 39.0547 51.2216 39.1716 51.0817 39.2534C50.9419 39.3352 50.7831 39.3791 50.621 39.3808C50.459 39.3824 50.2994 39.3418 50.1578 39.2629L48.9427 38.5865C48.7978 38.5067 48.677 38.3894 48.5929 38.2469C48.5088 38.1044 48.4646 37.9419 48.4648 37.7764V21.9437C48.4652 21.7822 48.5075 21.6236 48.5874 21.4833C48.6673 21.343 48.7821 21.2258 48.9208 21.143C49.0594 21.0603 49.2171 21.0148 49.3785 21.011C49.5399 21.0072 49.6996 21.0453 49.8419 21.1215Z" fill="white"/>
<path d="M45.0625 27.8047L46.2776 28.4689C46.4245 28.5475 46.5476 28.6642 46.6338 28.8067C46.72 28.9493 46.7663 29.1124 46.7677 29.279V35.6299C46.7663 35.7921 46.7227 35.9511 46.6413 36.0913C46.5599 36.2316 46.4435 36.3483 46.3034 36.43C46.1633 36.5116 46.0044 36.5555 45.8422 36.5573C45.6801 36.559 45.5203 36.5186 45.3784 36.44L44.1633 35.7636C44.0188 35.683 43.898 35.5656 43.8134 35.4233C43.7288 35.2811 43.6832 35.119 43.6813 34.9535V28.6269C43.6814 28.4649 43.7236 28.3056 43.8037 28.1648C43.8838 28.0239 43.9991 27.9063 44.1384 27.8234C44.2776 27.7406 44.436 27.6953 44.598 27.692C44.7599 27.6887 44.92 27.7275 45.0625 27.8047Z" fill="white"/>
<path d="M19.2133 60.9564V67.3397C19.2137 67.7334 19.32 68.1197 19.5209 68.4581C19.7219 68.7966 20.0101 69.0748 20.3555 69.2637L37.4115 78.8062C38.5135 79.4119 39.7461 79.7409 41.0033 79.7649C42.2606 79.7889 43.5049 79.5072 44.6292 78.9439L61.5798 69.3042C61.9443 69.1223 62.251 68.8426 62.4656 68.4964C62.6801 68.1502 62.7942 67.7511 62.7949 67.3438V61.005C62.7974 60.9328 62.7805 60.8611 62.746 60.7976C62.7114 60.7341 62.6605 60.681 62.5985 60.6438C62.5365 60.6066 62.4657 60.5867 62.3934 60.5861C62.3211 60.5855 62.25 60.6043 62.1874 60.6405L41.8223 71.3172C41.5584 71.4569 41.2643 71.53 40.9656 71.53C40.667 71.53 40.3729 71.4569 40.109 71.3172L19.8209 60.5919C19.7583 60.5557 19.6871 60.5369 19.6148 60.5375C19.5425 60.5381 19.4717 60.558 19.4097 60.5952C19.3477 60.6324 19.2968 60.6855 19.2623 60.749C19.2277 60.8125 19.2108 60.8842 19.2133 60.9564Z" fill="white"/>
<path d="M50.2347 46.9222C50.4815 46.917 50.7235 46.8528 50.9404 46.735C51.1574 46.6172 51.343 46.4492 51.4817 46.245C51.6205 46.0408 51.7084 45.8064 51.7381 45.5613C51.7677 45.3163 51.7383 45.0676 51.6523 44.8363C51.6422 44.8151 51.639 44.7913 51.6434 44.7683C51.6478 44.7452 51.6595 44.7242 51.6768 44.7083C51.694 44.6925 51.7159 44.6825 51.7392 44.68C51.7625 44.6776 51.786 44.6826 51.8063 44.6945C53.2725 45.5046 53.9246 46.5901 53.9246 47.9348C53.9246 50.4176 50.7775 52.4306 46.8932 52.4306C43.0089 52.4306 39.8618 50.4055 39.8618 47.9348C39.8618 45.4641 43.0089 43.4348 46.8932 43.4348C47.9647 43.429 49.0306 43.5903 50.0525 43.9128C50.1993 43.9575 50.3366 44.0289 50.4575 44.1234C50.6804 44.2976 50.8356 44.5442 50.8961 44.8206C50.9567 45.097 50.919 45.3858 50.7894 45.6373C50.6598 45.8889 50.4465 46.0873 50.1862 46.1983C49.926 46.3094 49.6352 46.3262 49.3639 46.2458C49.2324 46.1752 49.0972 46.1116 48.9589 46.0554C48.3815 45.8328 47.7672 45.7215 47.1484 45.7273C45.2447 45.7273 43.7015 46.7156 43.7015 47.9348C43.7015 49.1539 45.2447 50.1381 47.1484 50.1381C49.052 50.1381 50.5993 49.1499 50.5993 47.9348C50.6156 47.5624 50.4846 47.1987 50.2347 46.9222Z" fill="white"/>
<path d="M41.9923 58.2711C42.0564 58.2471 42.1139 58.2082 42.16 58.1577C42.2062 58.1071 42.2398 58.0464 42.2579 57.9804C42.2761 57.9144 42.2784 57.8451 42.2646 57.778C42.2508 57.711 42.2214 57.6482 42.1786 57.5947L40.2628 55.2253C40.2308 55.1854 40.2106 55.1374 40.2047 55.0866C40.1988 55.0358 40.2073 54.9844 40.2293 54.9383C40.2513 54.8922 40.2859 54.8532 40.3291 54.8258C40.3723 54.7985 40.4223 54.7839 40.4734 54.7838H43.4423C43.5372 54.795 43.633 54.7724 43.7128 54.7198C43.7926 54.6673 43.8513 54.5882 43.8784 54.4966C43.9056 54.405 43.8995 54.3067 43.8612 54.2192C43.8229 54.1317 43.7548 54.0605 43.6691 54.0183L34.2845 47.8739C34.2441 47.8496 34.198 47.8364 34.1509 47.8357C34.1038 47.835 34.0573 47.8467 34.0162 47.8698C33.9751 47.8928 33.9408 47.9263 33.9167 47.9668C33.8927 48.0074 33.8799 48.0536 33.8795 48.1007V56.6996C33.8785 56.7987 33.9037 56.8962 33.9526 56.9825C34.0014 57.0687 34.0721 57.1405 34.1576 57.1906C34.2431 57.2408 34.3403 57.2674 34.4394 57.268C34.5385 57.2685 34.6359 57.2429 34.722 57.1937L37.6584 55.5452C37.7147 55.5141 37.7802 55.5039 37.8432 55.5165C37.9063 55.5291 37.9628 55.5637 38.0027 55.6141L40.1737 58.3197C40.2863 58.4583 40.4389 58.5588 40.6107 58.6073C40.7825 58.6559 40.9652 58.6502 41.1336 58.5911L41.9923 58.2711Z" fill="white"/>
<path d="M40.0319 2.27938L13.8749 18.5739C13.6072 18.7405 13.3863 18.9726 13.2332 19.2483C13.0802 19.524 12.9999 19.8341 13 20.1495V52.9126C13.002 53.245 13.0933 53.5707 13.2643 53.8557C13.4353 54.1407 13.6798 54.3746 13.9721 54.5328L40.117 68.7089C40.3879 68.8564 40.6915 68.9337 41 68.9337C41.3084 68.9337 41.612 68.8564 41.8829 68.7089L68.0278 54.5328C68.3202 54.3746 68.5646 54.1407 68.7356 53.8557C68.9066 53.5707 68.9979 53.245 68.9999 52.9126V20.1495C69.0026 19.8364 68.926 19.5278 68.7773 19.2523C68.6286 18.9768 68.4126 18.7434 68.1494 18.5739L41.9923 2.27938C41.698 2.09676 41.3585 2 41.0121 2C40.6657 2 40.3263 2.09676 40.0319 2.27938ZM63.9289 52.0134L41.9801 63.565C41.7139 63.7065 41.4169 63.7805 41.1154 63.7805C40.8139 63.7805 40.5169 63.7065 40.2507 63.565L18.3302 52.0134C18.0344 51.8576 17.7861 51.6248 17.6115 51.3397C17.4369 51.0546 17.3423 50.7276 17.3379 50.3933V22.8753C17.3386 22.5602 17.4192 22.2503 17.5722 21.9747C17.7252 21.6992 17.9456 21.4669 18.2128 21.2998L40.1453 7.63393C40.4397 7.45131 40.7792 7.35454 41.1255 7.35454C41.4719 7.35454 41.8114 7.45131 42.1057 7.63393L64.0342 21.2998C64.3019 21.4664 64.5228 21.6985 64.6758 21.9742C64.8289 22.2499 64.9092 22.56 64.9091 22.8753V50.3731C64.9084 50.7113 64.8151 51.043 64.6395 51.3321C64.4639 51.6213 64.2126 51.8569 63.9127 52.0134H63.9289Z" fill="white"/>
</svg>
