<svg width="82" height="82" viewBox="0 0 82 82" fill="none" xmlns="http://www.w3.org/2000/svg">
<rect width="82" height="82" fill="#2C312E"/>
<path d="M75.9923 60.0056V56.5169C75.9916 55.6066 75.7173 54.7175 75.2048 53.9651L70.6626 47.3122L65.8653 19.0455C65.7377 16.7307 64.4071 15.9032 62.3219 16.0089H24.0449C21.7009 16.2057 20.3302 17.3613 19.6704 19.2132L14.122 47.6694L7.62586 53.6261C7.11316 54.0956 6.70382 54.6668 6.42391 55.3032C6.14399 55.9396 5.99963 56.6273 6 57.3225V60.0092C6.02552 64.1614 7.33423 66.4106 10.0464 66.571H72.1646C72.6142 66.5737 73.0594 66.482 73.4713 66.3018C73.8833 66.1216 74.2528 65.8568 74.556 65.5248C75.5256 64.453 76.0725 62.7178 75.9923 60.0056ZM63.4702 45.1796C62.8358 45.1631 62.2203 44.9599 61.7009 44.5954C61.1814 44.2308 60.781 43.7212 60.5497 43.1302C60.3184 42.5392 60.2666 41.8931 60.4007 41.2728C60.5348 40.6526 60.8488 40.0856 61.3035 39.6429C61.7582 39.2002 62.3334 38.9014 62.9571 38.784C63.5808 38.6666 64.2252 38.7357 64.8098 38.9827C65.3943 39.2297 65.8931 39.6437 66.2436 40.1727C66.5941 40.7018 66.7808 41.3224 66.7803 41.9571C66.7649 42.824 66.407 43.6497 65.7847 44.2535C65.1624 44.8574 64.3263 45.1904 63.4593 45.1796H63.4702ZM66.1496 56.8778H61.8261C61.7271 56.8793 61.6299 56.8503 61.5478 56.7949C61.4657 56.7396 61.4025 56.6603 61.3668 56.5679L61.0022 55.5837C60.978 55.5116 60.9716 55.4347 60.9837 55.3596C60.9957 55.2845 61.0258 55.2134 61.0713 55.1525C61.1168 55.0915 61.1764 55.0425 61.245 55.0097C61.3137 54.9769 61.3892 54.9612 61.4652 54.964H65.621C65.7105 54.9636 65.7984 54.9875 65.8754 55.033C65.9524 55.0786 66.0157 55.1442 66.0585 55.2228L66.5761 56.2034C66.6118 56.2752 66.6285 56.355 66.6244 56.4351C66.6203 56.5152 66.5956 56.5929 66.5527 56.6607C66.5098 56.7285 66.4502 56.7841 66.3796 56.8221C66.309 56.8601 66.2298 56.8793 66.1496 56.8778ZM63.3936 30.5833C64.0279 30.6005 64.643 30.8043 65.1619 31.1693C65.6809 31.5343 66.0808 32.0441 66.3115 32.6352C66.5422 33.2262 66.5935 33.8721 66.4591 34.4922C66.3246 35.1122 66.0102 35.6789 65.5554 36.1212C65.1006 36.5635 64.5254 36.8619 63.9018 36.9791C63.2783 37.0962 62.634 37.0269 62.0497 36.7798C61.4653 36.5327 60.9668 36.1188 60.6164 35.5898C60.2661 35.0609 60.0795 34.4403 60.08 33.8059C60.0953 32.9421 60.4507 32.1192 61.0691 31.5159C61.6874 30.9125 62.5188 30.5774 63.3827 30.5833H63.3936ZM59.6498 49.6671H63.2332C63.3484 49.669 63.4605 49.7046 63.5557 49.7693C63.6509 49.8341 63.7251 49.9253 63.7691 50.0317L64.8919 52.4595C64.9356 52.5516 64.9557 52.653 64.9503 52.7548C64.9449 52.8565 64.9142 52.9553 64.861 53.0421C64.8077 53.129 64.7337 53.2012 64.6455 53.2523C64.5574 53.3033 64.4579 53.3316 64.356 53.3344H60.4554C60.3296 53.333 60.2074 53.2921 60.1061 53.2175C60.0047 53.143 59.9293 53.0385 59.8904 52.9189L59.0884 50.491C59.0538 50.3995 59.0418 50.301 59.0534 50.2039C59.0649 50.1068 59.0997 50.0139 59.1548 49.9331C59.2099 49.8522 59.2836 49.7859 59.3698 49.7396C59.4559 49.6933 59.552 49.6684 59.6498 49.6671ZM28.7074 24.5137C28.9217 23.8934 29.2861 23.3357 29.7683 22.8905C30.2504 22.4452 30.8352 22.1262 31.4706 21.9619C38.3532 20.1392 45.8701 19.9569 54.2509 22.0457C54.7498 22.1656 55.2096 22.4115 55.5862 22.7601C55.9628 23.1086 56.2436 23.548 56.4017 24.0361C57.951 28.9246 57.5318 37.9799 55.7601 39.4927C55.7073 39.5401 55.6607 39.594 55.6216 39.6531C53.8718 42.2596 31.8862 41.8951 29.7646 39.8719C29.7372 39.8425 29.7052 39.8179 29.6698 39.799C27.3476 38.4757 27.107 29.2746 28.7074 24.5319V24.5137ZM52.8511 46.3863C52.5498 46.3557 52.2634 46.2404 52.0251 46.0536C51.7868 45.8669 51.6064 45.6163 51.5048 45.3311C51.4032 45.0459 51.3846 44.7377 51.4511 44.4423C51.5176 44.147 51.6666 43.8765 51.8807 43.6624C52.0948 43.4483 52.3652 43.2994 52.6606 43.2328C52.956 43.1663 53.2642 43.1849 53.5494 43.2865C53.8346 43.3881 54.0851 43.5686 54.2719 43.8069C54.4587 44.0452 54.574 44.3316 54.6045 44.6328C54.6271 44.8687 54.5972 45.1066 54.5171 45.3296C54.437 45.5526 54.3085 45.7551 54.141 45.9227C53.9734 46.0903 53.7709 46.2187 53.5479 46.2988C53.3249 46.379 53.0869 46.4088 52.8511 46.3863ZM46.9491 46.3863C46.6479 46.3557 46.3615 46.2404 46.1232 46.0536C45.8849 45.8669 45.7044 45.6163 45.6028 45.3311C45.5012 45.0459 45.4826 44.7377 45.5491 44.4423C45.6157 44.147 45.7647 43.8765 45.9788 43.6624C46.1928 43.4483 46.4633 43.2994 46.7587 43.2328C47.054 43.1663 47.3622 43.1849 47.6474 43.2865C47.9326 43.3881 48.1832 43.5686 48.37 43.8069C48.5567 44.0452 48.6721 44.3316 48.7026 44.6328C48.7251 44.8687 48.6953 45.1066 48.6151 45.3296C48.535 45.5526 48.4066 45.7551 48.239 45.9227C48.0715 46.0903 47.8689 46.2187 47.6459 46.2988C47.4229 46.379 47.185 46.4088 46.9491 46.3863ZM41.0472 46.3863C40.7459 46.3557 40.4595 46.2404 40.2212 46.0536C39.9829 45.8669 39.8025 45.6163 39.7009 45.3311C39.5993 45.0459 39.5807 44.7377 39.6472 44.4423C39.7137 44.147 39.8627 43.8765 40.0768 43.6624C40.2909 43.4483 40.5613 43.2994 40.8567 43.2328C41.1521 43.1663 41.4603 43.1849 41.7455 43.2865C42.0307 43.3881 42.2812 43.5686 42.468 43.8069C42.6548 44.0452 42.7701 44.3316 42.8006 44.6328C42.8225 44.8685 42.7922 45.1062 42.7118 45.3289C42.6315 45.5516 42.503 45.7538 42.3356 45.9212C42.1682 46.0886 41.9659 46.2171 41.7433 46.2975C41.5206 46.3778 41.2829 46.4082 41.0472 46.3863ZM21.7264 26.1833C21.7293 25.9335 21.8303 25.6948 22.0076 25.5188C22.1849 25.3429 22.4244 25.2437 22.6742 25.2428H23.684C23.8092 25.2428 23.9333 25.2675 24.0489 25.3155C24.1646 25.3636 24.2697 25.434 24.3581 25.5227C24.4465 25.6115 24.5165 25.7168 24.5641 25.8326C24.6117 25.9485 24.6359 26.0726 24.6354 26.1979V29.9818C24.6354 30.2342 24.5352 30.4762 24.3568 30.6546C24.1783 30.833 23.9363 30.9333 23.684 30.9333H22.6742C22.4219 30.9333 22.1799 30.833 22.0014 30.6546C21.823 30.4762 21.7227 30.2342 21.7227 29.9818L21.7264 26.1833ZM21.7264 35.8437C21.7264 35.5913 21.8266 35.3493 22.0051 35.1709C22.1835 34.9925 22.4255 34.8922 22.6778 34.8922H23.6876C23.94 34.8922 24.182 34.9925 24.3604 35.1709C24.5388 35.3493 24.6391 35.5913 24.6391 35.8437V39.6495C24.6391 39.9018 24.5388 40.1439 24.3604 40.3223C24.182 40.5007 23.94 40.601 23.6876 40.601H22.6742C22.4219 40.601 22.1799 40.5007 22.0014 40.3223C21.823 40.1439 21.7227 39.9018 21.7227 39.6495L21.7264 35.8437ZM16.3785 55.0223L19.8453 50.2832C19.9546 50.1355 20.0968 50.0153 20.2608 49.9324C20.4247 49.8495 20.6058 49.8061 20.7895 49.8057H55.2899C55.5437 49.8048 55.7908 49.887 55.9935 50.0397C56.1962 50.1924 56.3434 50.4072 56.4126 50.6514L57.7687 55.3905C57.8184 55.5639 57.8271 55.7465 57.7942 55.9238C57.7613 56.1012 57.6878 56.2685 57.5793 56.4126C57.4709 56.5568 57.3305 56.6738 57.1691 56.7545C57.0078 56.8352 56.83 56.8774 56.6496 56.8778H17.3227C17.1075 56.877 16.8967 56.8169 16.7135 56.7041C16.5303 56.5913 16.3817 56.4301 16.2841 56.2383C16.1865 56.0465 16.1437 55.8316 16.1604 55.617C16.177 55.4025 16.2525 55.1967 16.3785 55.0223ZM73.3019 57.4465L71.6177 60.4649C71.465 60.71 71.2489 60.9092 70.9922 61.0414C70.7355 61.1736 70.4478 61.2339 70.1596 61.2159H11.1036C10.8718 61.1901 10.6502 61.1064 10.4591 60.9727C10.268 60.8389 10.1136 60.6593 10.01 60.4503L8.50441 57.5814C8.48002 57.5357 8.47179 57.4831 8.48106 57.4321C8.49032 57.3812 8.51654 57.3349 8.55545 57.3007L14.6032 51.8544C14.6452 51.8148 14.7007 51.7928 14.7584 51.7928C14.8161 51.7928 14.8716 51.8149 14.9135 51.8545C14.9555 51.8941 14.9807 51.9482 14.984 52.0058C14.9873 52.0634 14.9684 52.1201 14.9313 52.1643L11.1218 57.3225C11.0987 57.3542 11.0839 57.3911 11.0788 57.43C11.0737 57.4689 11.0785 57.5084 11.0927 57.5449L11.6504 58.9666C11.6675 59.009 11.6967 59.0453 11.7343 59.0713C11.7718 59.0972 11.8162 59.1115 11.8619 59.1125H69.1571C69.2096 59.1125 69.2603 59.093 69.2992 59.0578L70.5934 57.9641C70.6327 57.9311 70.6597 57.8859 70.6703 57.8357C70.6809 57.7855 70.6743 57.7331 70.6517 57.6871L67.7827 51.3222C67.6661 51.0743 68.078 50.7061 68.2421 50.9248L73.2873 57.0346C73.3311 57.0937 73.3558 57.1647 73.3584 57.2383C73.361 57.3118 73.3413 57.3844 73.3019 57.4465Z" fill="#ED8C0C"/>
<path d="M63.4848 35.3224C64.27 35.3224 64.9065 34.6859 64.9065 33.9007C64.9065 33.1155 64.27 32.4789 63.4848 32.4789C62.6996 32.4789 62.063 33.1155 62.063 33.9007C62.063 34.6859 62.6996 35.3224 63.4848 35.3224Z" fill="#ED8C0C"/>
<path d="M63.5285 33.9007V32.5518L64.9211 33.2263L66.31 33.9007L64.9211 34.5787L63.5285 35.2531V33.9007Z" fill="#ED8C0C"/>
<path d="M64.5674 43.0264C65.1226 42.4711 65.1226 41.571 64.5674 41.0157C64.0122 40.4605 63.112 40.4605 62.5568 41.0158C62.0016 41.571 62.0016 42.4711 62.5568 43.0264C63.112 43.5816 64.0122 43.5816 64.5674 43.0264Z" fill="#ED8C0C"/>
<path d="M63.5285 42.0518L64.4836 43.0106L63.0254 43.5137L61.5636 44.0204L62.0703 42.5586L62.5734 41.0967L63.5285 42.0518Z" fill="#ED8C0C"/>
</svg>
