<svg width="82" height="82" viewBox="0 0 82 82" fill="none" xmlns="http://www.w3.org/2000/svg">
<rect width="82" height="82" fill="#322525"/>
<path d="M69.2887 39.3394L66.2772 42.9958L62.1062 43.479L55.5952 41.3366L62.3812 39.9323L70.8487 33.0445L69.2946 24.5094C68.9579 22.4608 66.0929 22.9282 66.4286 24.9718L67.6968 31.9516L61.0104 37.3067L55.7596 38.3512L52.6266 40.3612H52.6167L52.019 40.7565L52.285 44.3437L52.6884 56.054L42.0831 67.1081L36.7436 69.1161C34.0799 69.8928 34.9834 72.4958 36.8433 71.9167L43.7169 69.3543L55.6211 57.2458L55.3283 48.7521L58.5051 52.3096L58.6615 57.5224L55.4837 64.7265C54.3401 67.1308 56.9989 68.375 58.1425 65.9706L61.5882 57.9148L61.3561 51.1633L55.1699 44.2409L61.9439 46.415L67.7097 45.6966L71.4952 41.1666C73.0024 39.371 70.7979 37.5458 69.2887 39.3394Z" fill="#DF8F62"/>
<path d="M56.7199 12.1469L48.0671 10.8968L41.4177 19.5328L40.2302 26.3109L37.8494 19.929L38.1901 15.7786L41.7763 12.6677C43.5325 11.1093 41.6179 8.98661 39.8626 10.545L35.4267 14.4484L34.9007 20.1889L37.3214 26.8287L30.136 20.9321H23.3271L15.3279 24.624C12.945 25.8395 14.2899 28.4326 16.6727 27.2161L23.8212 23.8246L29.083 23.8058L32.7739 26.8327H24.2068L12.4141 39.043L10.0671 45.9456C9.54707 47.8064 12.1999 48.6138 12.8912 45.9456L14.7322 40.5846L25.5098 29.6886H37.3214L40.9445 29.8299L41.319 29.2281V29.2172L43.2377 26.0431L44.1093 20.8056L49.2805 13.9869L56.3533 15.0058C58.4273 15.2667 58.7949 12.4098 56.7199 12.1469Z" fill="#DF8F62"/>
<path d="M54.6708 22.9352L56.6781 23.3087C57.0955 22.6061 57.5936 22.0072 58.5708 21.5734C58.6314 21.5474 58.6813 21.5016 58.7121 21.4437C58.7429 21.3858 58.7529 21.3191 58.7403 21.2548C58.7278 21.1905 58.6935 21.1324 58.6431 21.09C58.5927 21.0477 58.5292 21.0237 58.4632 21.022C56.7129 20.9755 55.6749 21.6238 54.6708 22.9352Z" fill="#DF8F62"/>
<path d="M58.9006 27.0649L58.52 25.0736C59.2403 24.6516 59.8529 24.1477 60.2922 23.1397C60.3175 23.0828 60.3614 23.036 60.4169 23.007C60.4724 22.978 60.5361 22.9685 60.5977 22.9799C60.6593 22.9914 60.7152 23.0232 60.7563 23.0701C60.7974 23.117 60.8213 23.1764 60.8242 23.2385C60.8869 25.0173 60.2344 26.0579 58.9006 27.0649Z" fill="#DF8F62"/>
<path d="M56.704 35.8906C58.3596 31.9526 58.6744 28.1499 57.3017 24.5203C53.6437 23.0261 49.8304 23.2148 45.8736 24.8711L42.3501 30.8606L50.8963 39.2801L56.704 35.8906Z" fill="#DF8F62"/>
<path d="M28.4743 43.066C29.3607 43.066 30.0792 42.3532 30.0792 41.474C30.0792 40.5947 29.3607 39.882 28.4743 39.882C27.588 39.882 26.8695 40.5947 26.8695 41.474C26.8695 42.3532 27.588 43.066 28.4743 43.066Z" fill="#DF8F62"/>
<path d="M42.2046 52.6486C43.091 52.6486 43.8095 51.9358 43.8095 51.0566C43.8095 50.1774 43.091 49.4646 42.2046 49.4646C41.3183 49.4646 40.5998 50.1774 40.5998 51.0566C40.5998 51.9358 41.3183 52.6486 42.2046 52.6486Z" fill="#DF8F62"/>
<path d="M31.977 51.1841C32.8633 51.1841 33.5818 50.4714 33.5818 49.5921C33.5818 48.7129 32.8633 48.0001 31.977 48.0001C31.0906 48.0001 30.3721 48.7129 30.3721 49.5921C30.3721 50.4714 31.0906 51.1841 31.977 51.1841Z" fill="#DF8F62"/>
<path d="M49.9399 40.7002L40.4892 31.4141C34.291 30.7055 29.4775 31.4486 25.953 33.5427L18.4389 41.3347C15.8369 46.503 15.3448 51.6704 16.6647 56.8377L22.9765 50.6051L22.2473 46.3073L25.4769 43.1629C25.0694 42.4486 24.9349 41.6126 25.0979 40.8079C25.2609 40.0033 25.7106 39.2838 26.3646 38.7811C27.0186 38.2784 27.8333 38.0262 28.6594 38.0706C29.4856 38.115 30.268 38.4531 30.8634 39.0229C31.4589 39.5927 31.8276 40.3562 31.902 41.1736C31.9764 41.991 31.7516 42.8077 31.2688 43.4741C30.7859 44.1406 30.0772 44.6123 29.2725 44.8028C28.4677 44.9933 27.6207 44.89 26.8865 44.5118L24.3233 47.087L25.1153 51.1842L17.3003 58.9366C17.6272 59.8669 18.0012 60.7802 18.421 61.673L28.9695 51.1822C28.5825 50.4631 28.4702 49.6297 28.653 48.835C28.8359 48.0403 29.3018 47.3378 29.9649 46.8566C30.6281 46.3753 31.4441 46.1477 32.2629 46.2154C33.0818 46.2832 33.8485 46.6418 34.4221 47.2253C34.9958 47.8089 35.3379 48.5783 35.3855 49.392C35.4332 50.2058 35.1832 51.0092 34.6815 51.6548C34.1798 52.3003 33.4602 52.7446 32.6547 52.9059C31.8493 53.0673 31.0123 52.9349 30.2974 52.5331L20.0676 62.8588C20.9321 63.3796 21.8435 63.8192 22.7902 64.1722L31.4051 55.6973L35.9566 55.9414L39.1374 52.6418C38.7548 51.9123 38.6499 51.0706 38.8418 50.2706C39.0337 49.4707 39.5096 48.766 40.1824 48.2857C40.8552 47.8054 41.6799 47.5816 42.5055 47.6552C43.3311 47.7288 44.1023 48.0949 44.678 48.6865C45.2538 49.2781 45.5954 50.0556 45.6405 50.8767C45.6855 51.6977 45.431 52.5074 44.9234 53.1575C44.4158 53.8076 43.6892 54.2546 42.8766 54.4167C42.0639 54.5788 41.2196 54.4451 40.4982 54.0401L36.7844 57.8654L32.2409 57.4909L24.8861 64.8234C29.6459 65.9974 35.2683 65.4875 40.3507 63.1583L48.3769 55.6202C50.9999 50.7039 51.472 45.7312 49.9399 40.7002Z" fill="#DF8F62"/>
</svg>
