<svg width="17" height="10" viewBox="0 0 17 10" fill="none" xmlns="http://www.w3.org/2000/svg">
<mask id="mask0_16_49" style="mask-type:luminance" maskUnits="userSpaceOnUse" x="0" y="0" width="18" height="10">
<path d="M17.0154 0H0V10H17.0154V0Z" fill="white"/>
</mask>
<g mask="url(#mask0_16_49)">
<path d="M16.9691 9.62077C16.964 9.5844 16.9588 9.55324 16.9537 9.51687C16.9176 9.30388 16.8764 9.0909 16.825 8.87791C16.7374 8.50908 16.6242 8.15064 16.4903 7.80778C16.377 7.51168 16.2483 7.22596 16.1042 6.95064C15.9188 6.59739 15.7129 6.25454 15.4812 5.92726C15.1981 5.52726 14.884 5.15843 14.5442 4.81038C14.4001 4.66492 14.2508 4.52466 14.0963 4.39479C13.7617 4.10389 13.4064 3.83895 13.0306 3.60518C13.0357 3.59999 13.0357 3.59479 13.0409 3.5896C13.2108 3.2883 13.3858 2.9922 13.5557 2.6909C13.7256 2.39999 13.8904 2.10908 14.0603 1.81298C14.1787 1.60518 14.3022 1.3922 14.4207 1.1844C14.4515 1.13246 14.4721 1.0857 14.4876 1.02856C14.5339 0.883106 14.5391 0.727262 14.4979 0.581807C14.4876 0.545443 14.4773 0.50908 14.4618 0.477911C14.4464 0.441547 14.4309 0.410379 14.4104 0.37921C14.3486 0.270119 14.2559 0.176614 14.1375 0.109081C14.0345 0.0467434 13.9213 0.0103795 13.8028 -1.01463e-05C13.7514 -0.00520495 13.705 -0.00520495 13.6535 -1.01463e-05C13.6124 0.00518466 13.5712 0.0103791 13.5351 0.0207688C13.391 0.0571324 13.2623 0.135054 13.1593 0.24934C13.1233 0.290898 13.0872 0.337652 13.0615 0.384405C12.9431 0.592197 12.8195 0.805185 12.7011 1.01298L12.1965 1.8909C12.0266 2.1922 11.8516 2.4883 11.6817 2.7896C11.6611 2.82077 11.6457 2.85713 11.6251 2.8883C11.5993 2.87791 11.5736 2.86752 11.5478 2.85713C10.6005 2.4935 9.57601 2.29609 8.5 2.29609C8.46911 2.29609 8.44337 2.29609 8.41248 2.29609C7.46002 2.30648 6.54361 2.47272 5.68383 2.77402C5.58601 2.81038 5.48819 2.84674 5.39037 2.88311C5.37492 2.85194 5.35433 2.82077 5.33888 2.7896C5.16899 2.4883 4.99394 2.1922 4.82405 1.8909C4.65415 1.59999 4.4894 1.30908 4.3195 1.01298C4.20109 0.805185 4.07753 0.592197 3.95912 0.384405C3.92823 0.332457 3.89733 0.290898 3.86129 0.24934C3.75833 0.135054 3.62447 0.0571324 3.48546 0.0207688C3.44428 0.0103791 3.40309 0.00518466 3.36705 -1.01463e-05C3.31557 -0.00520495 3.26923 -0.00520495 3.21775 -1.01463e-05C3.09933 0.0103795 2.98607 0.0467434 2.8831 0.109081C2.76983 0.176614 2.67716 0.270119 2.61024 0.37921C2.58964 0.410379 2.5742 0.441547 2.55875 0.477911C2.54331 0.514275 2.53301 0.545443 2.52271 0.581807C2.48667 0.727262 2.48667 0.877911 2.53301 1.02856C2.54845 1.08051 2.5742 1.13246 2.59994 1.1844C2.71835 1.3922 2.84191 1.60518 2.96033 1.81298C3.13022 2.10389 3.29497 2.39479 3.46487 2.6909C3.63477 2.9922 3.80981 3.2883 3.97971 3.5896L3.98486 3.59479C3.63991 3.81298 3.31042 4.05194 2.99637 4.31687C2.81102 4.47272 2.63083 4.63895 2.46093 4.81038C2.11599 5.15324 1.80709 5.52726 1.52392 5.92726C1.29225 6.25454 1.08631 6.5922 0.900968 6.95064C0.756813 7.22596 0.628103 7.51168 0.514838 7.80778C0.38098 8.15583 0.267715 8.51427 0.180193 8.87791C0.128709 9.0857 0.0875216 9.29869 0.0514828 9.51687C0.0463344 9.55324 0.0411866 9.5844 0.0360382 9.62077C0.0154447 9.74544 -5.25266e-07 9.87012 -0.0154457 9.99999H17C17 9.87012 16.9846 9.74544 16.9691 9.62077Z" fill="#8ABF17"/>
<path d="M12.9328 7.62077C13.2726 7.3922 13.324 6.86233 13.0409 6.44155C12.7629 6.01558 12.2583 5.85973 11.9185 6.08831C11.5787 6.31688 11.5273 6.84675 11.8104 7.26753C12.0884 7.6935 12.593 7.84935 12.9328 7.62077Z" fill="#202124"/>
<path d="M5.22047 7.27271C5.49849 6.84674 5.45215 6.32207 5.11236 6.09349C4.77256 5.86492 4.26802 6.02077 3.99001 6.44674C3.71199 6.87272 3.75833 7.39739 4.09812 7.62596C4.43792 7.85453 4.93731 7.69349 5.22047 7.27271Z" fill="#202124"/>
</g>
</svg>
