<svg width="64" height="64" viewBox="0 0 64 64" fill="none" xmlns="http://www.w3.org/2000/svg">
<g clip-path="url(#clip0_198_2)">
<path d="M32 53.3333L24.8889 46.2222H39.1111L32 53.3333Z" fill="#6D980F" fill-opacity="0.2"/>
<path d="M32 35.5555L21.3333 46.2222H42.6666L32 35.5555Z" fill="#ABDB42" fill-opacity="0.2"/>
<path d="M0 17.7778H14.2222V64L7.11111 24.8889L0 17.7778Z" fill="#DE44B0" fill-opacity="0.2"/>
<path d="M21.3333 24.8888L14.2222 64V17.7778L28.4445 17.7778L21.3333 24.8888Z" fill="#9A006C" fill-opacity="0.2"/>
<path d="M0 17.7778L7.11111 0L14.2222 10.6667L21.3333 0L28.4444 17.7778H0Z" fill="#1CBCC1" fill-opacity="0.2"/>
<path d="M35.5555 17.7778H49.7778V64L42.6667 24.8889L35.5555 17.7778Z" fill="#9A006C" fill-opacity="0.2"/>
<path d="M56.8889 24.8888L49.7778 64V17.7778L64 17.7778L56.8889 24.8888Z" fill="#DE44B0" fill-opacity="0.2"/>
<path d="M35.5555 17.7778L42.6667 0L49.7778 10.6667L56.8889 0L64 17.7778H35.5555Z" fill="#1CBCC1" fill-opacity="0.2"/>
</g>
<defs>
<clipPath id="clip0_198_2">
<rect width="64" height="64" fill="white"/>
</clipPath>
</defs>
</svg>
