<svg width="82" height="82" viewBox="0 0 82 82" fill="none" xmlns="http://www.w3.org/2000/svg">
<rect width="82" height="82" fill="#00302C"/>
<path d="M20.8004 24.1357L48.6362 16.6772L49.7901 20.9109" stroke="#00A99D" stroke-width="3" stroke-miterlimit="10"/>
<path d="M22.365 49.3518L17.2542 30.278" stroke="#00A99D" stroke-width="3" stroke-miterlimit="10"/>
<path d="M37.8335 51.3726L33.615 35.629" stroke="#00A99D" stroke-width="3" stroke-miterlimit="10"/>
<path d="M44.5143 32.7085L48.7328 48.452" stroke="#00A99D" stroke-width="3" stroke-miterlimit="10"/>
<path d="M42.4801 25.1411L23.3275 30.2731L26.7347 42.989L34.994 40.7759" stroke="#00A99D" stroke-width="3" stroke-miterlimit="10"/>
<path d="M42.9669 26.9577C43.9702 26.6888 44.5656 25.6576 44.2967 24.6543C44.0279 23.6511 42.9967 23.0557 41.9934 23.3245C40.9902 23.5934 40.3948 24.6246 40.6636 25.6278C40.9324 26.6311 41.9637 27.2265 42.9669 26.9577Z" fill="#00A99D" stroke="#00A99D" stroke-miterlimit="10"/>
<path d="M39.6181 58.0332L58.8313 52.8851L55.6674 41.0774L47.3536 43.3051" stroke="#00A99D" stroke-width="3" stroke-miterlimit="10"/>
<path d="M40.1049 59.8497C41.1081 59.5809 41.7035 58.5497 41.4347 57.5464C41.1659 56.5432 40.1346 55.9478 39.1314 56.2166C38.1281 56.4854 37.5327 57.5167 37.8016 58.5199C38.0704 59.5232 39.1016 60.1186 40.1049 59.8497Z" fill="#00A99D" stroke="#00A99D" stroke-miterlimit="10"/>
<path d="M45.8934 37.8555L59.8204 34.1237L64.8501 52.8949" stroke="#00A99D" stroke-width="3" stroke-miterlimit="10"/>
<path d="M61.2228 58.7343L33.3689 66.1977L32.2332 61.9591" stroke="#00A99D" stroke-width="3" stroke-miterlimit="10"/>
<path d="M36.4543 46.2256L22.5273 49.9574L17.2542 30.278" stroke="#00A99D" stroke-width="3" stroke-miterlimit="10"/>
<path d="M14.8442 20.702C12.1678 21.4192 10.5809 24.1678 11.298 26.8442C12.0151 29.5206 14.7637 31.1075 17.4401 30.3903C20.1165 29.6732 21.7035 26.9246 20.9863 24.2482C20.2692 21.5718 17.5206 19.9849 14.8442 20.702ZM16.6289 27.3627C15.6237 27.6321 14.5949 27.0381 14.3256 26.0329C14.0563 25.0278 14.6502 23.9989 15.6554 23.7296C16.6606 23.4603 17.6894 24.0543 17.9587 25.0594C18.228 26.0646 17.6341 27.0934 16.6289 27.3627Z" fill="#00A99D" stroke="#00A99D" stroke-width="0.5" stroke-miterlimit="10"/>
<path d="M49.853 20.8551C47.1766 21.5722 45.5897 24.3208 46.3068 26.9972C47.024 29.6736 49.7726 31.2605 52.449 30.5434C55.1254 29.8263 56.7123 27.0777 55.9952 24.4013C55.278 21.7249 52.5294 20.1379 49.853 20.8551ZM51.6377 27.5158C50.6326 27.7851 49.6038 27.1912 49.3344 26.186C49.0651 25.1808 49.6591 24.152 50.6643 23.8827C51.6694 23.6134 52.6982 24.2073 52.9676 25.2125C53.2369 26.2177 52.6429 27.2465 51.6377 27.5158Z" fill="#00A99D" stroke="#00A99D" stroke-width="0.5" stroke-miterlimit="10"/>
<path d="M64.7608 52.5619C62.0844 53.279 60.4975 56.0276 61.2147 58.704C61.9318 61.3804 64.6804 62.9673 67.3568 62.2502C70.0332 61.5331 71.6201 58.7844 70.903 56.108C70.1859 53.4316 67.4372 51.8447 64.7608 52.5619ZM66.5456 59.2226C65.5404 59.4919 64.5116 58.8979 64.2423 57.8928C63.9729 56.8876 64.5669 55.8588 65.5721 55.5895C66.5773 55.3201 67.6061 55.9141 67.8754 56.9193C68.1447 57.9245 67.5507 58.9533 66.5456 59.2226Z" fill="#00A99D" stroke="#00A99D" stroke-width="0.5" stroke-miterlimit="10"/>
<path d="M29.7823 53.3935C27.1059 54.1107 25.519 56.8593 26.2361 59.5357C26.9532 62.2121 29.7019 63.799 32.3783 63.0819C35.0547 62.3647 36.6416 59.6161 35.9244 56.9397C35.2073 54.2633 32.4587 52.6764 29.7823 53.3935ZM31.567 60.0543C30.5618 60.3236 29.533 59.7296 29.2637 58.7244C28.9944 57.7193 29.5884 56.6905 30.5935 56.4211C31.5987 56.1518 32.6275 56.7458 32.8968 57.751C33.1662 58.7561 32.5722 59.7849 31.567 60.0543Z" fill="#00A99D" stroke="#00A99D" stroke-width="0.5" stroke-miterlimit="10"/>
<path d="M34.1017 37.4456C35.105 37.1767 35.7003 36.1455 35.4315 35.1423C35.1627 34.139 34.1315 33.5436 33.1282 33.8124C32.1249 34.0813 31.5296 35.1125 31.7984 36.1158C32.0672 37.119 33.0984 37.7144 34.1017 37.4456Z" fill="#00A99D" stroke="#00A99D" stroke-miterlimit="10"/>
<path d="M38.3186 53.183C39.3218 52.9142 39.9172 51.8829 39.6484 50.8797C39.3795 49.8764 38.3483 49.2811 37.3451 49.5499C36.3418 49.8187 35.7464 50.8499 36.0152 51.8532C36.2841 52.8564 37.3153 53.4518 38.3186 53.183Z" fill="#00A99D" stroke="#00A99D" stroke-miterlimit="10"/>
<path d="M34.5131 43.8253L47.8346 40.2558" stroke="#00A99D" stroke-width="3" stroke-miterlimit="10"/>
<path d="M45.0011 34.525C46.0043 34.2562 46.5997 33.225 46.3309 32.2217C46.062 31.2185 45.0308 30.6231 44.0276 30.8919C43.0243 31.1607 42.4289 32.192 42.6977 33.1952C42.9666 34.1985 43.9978 34.7939 45.0011 34.525Z" fill="#00A99D" stroke="#00A99D" stroke-miterlimit="10"/>
<path d="M49.2179 50.2626C50.2212 49.9938 50.8165 48.9625 50.5477 47.9593C50.2789 46.956 49.2477 46.3606 48.2444 46.6295C47.2412 46.8983 46.6458 47.9295 46.9146 48.9328C47.1834 49.936 48.2147 50.5314 49.2179 50.2626Z" fill="#00A99D" stroke="#00A99D" stroke-miterlimit="10"/>
</svg>
