<svg width="82" height="82" viewBox="0 0 82 82" fill="none" xmlns="http://www.w3.org/2000/svg">
<rect width="82" height="82" fill="#414141"/>
<path d="M59.4681 26.1122C57.3657 26.1905 55.3032 25.5231 53.6452 24.2278C51.9873 22.9325 50.8406 21.0928 50.4079 19.0339C49.7709 17.2289 48.7799 16.7688 47.3289 17.866C46.7427 18.339 46.069 18.6918 45.3464 18.9044C44.6237 19.1169 43.8663 19.185 43.1173 19.1047C44.8515 23.6702 45.0284 27.3155 42.8342 29.7221C43.4712 20.2018 35.7559 16.1672 24.8907 15.8487C33.7032 12.9819 42.3387 18.7861 47.3289 17.9014C41.7334 14.1362 34.9931 12.4562 28.2851 13.1548C21.577 13.8535 15.3275 16.8863 10.628 21.7236C24.2891 16.4857 37.8794 20.2018 44.1083 31.8102C48.2137 27.5632 53.1331 29.8637 53.1331 35.3493C56.3183 35.137 57.7694 37.6498 58.2648 41.6136C59.4478 41.9086 60.4733 42.6446 61.1312 43.6711C61.7892 44.6975 62.0299 45.9366 61.804 47.1347C59.362 54.7438 63.6089 58.743 69.5547 56.301L71.8905 57.1858C71.9638 53.6049 72.4387 50.0435 73.3062 46.5684L72.2444 44.1972C69.1412 37.4303 64.8091 31.2982 59.4681 26.1122ZM66.5464 55.0623C65.719 55.0623 64.9101 54.8165 64.2226 54.356C63.5351 53.8955 62.9999 53.2412 62.6849 52.476C62.3698 51.7109 62.2892 50.8694 62.4533 50.0583C62.6173 49.2473 63.0186 48.5032 63.6062 47.9206C64.1938 47.338 64.9412 46.9431 65.7536 46.7859C66.566 46.6288 67.4068 46.7166 68.1693 47.0381C68.9317 47.3596 69.5815 47.9004 70.0361 48.5918C70.4907 49.2832 70.7296 50.0941 70.7226 50.9215C70.7321 52.0137 70.3097 53.0654 69.5474 53.8476C68.7851 54.6298 67.7446 55.0791 66.6526 55.0977L66.5464 55.0623Z" fill="#0579CF"/>
<path d="M22.6611 55.7702C24.7636 55.6918 26.826 56.3592 28.484 57.6545C30.1419 58.9498 31.2886 60.7895 31.7213 62.8485C32.3583 64.6534 33.3493 65.1135 34.8003 64.0164C35.3866 63.5434 36.0602 63.1905 36.7829 62.978C37.5055 62.7654 38.263 62.6974 39.0119 62.7777C37.2777 58.2122 37.1008 54.5669 39.295 52.1603C38.658 61.6805 46.3733 65.7152 57.2385 66.0337C48.426 68.9004 39.7905 63.0962 34.8003 63.981C40.3958 67.7462 47.1361 69.4261 53.8442 68.7275C60.5522 68.0289 66.8017 64.9961 71.5012 60.1587C57.8402 65.3966 44.2499 61.6805 38.021 50.0722C33.9156 54.3191 28.9961 52.0187 28.9961 46.533C25.8109 46.7454 24.3599 44.2326 23.8644 40.2687C22.6814 39.9738 21.656 39.2377 20.998 38.2113C20.3401 37.1849 20.0994 35.9458 20.3253 34.7477C22.9088 27.0677 18.6619 23.2455 12.7515 25.5105L10.4157 24.6257C10.3423 28.2067 9.86748 31.7681 9 35.2432L10.0617 37.6144C13.1045 44.3923 17.3763 50.5481 22.6611 55.7702ZM15.4766 26.7846C16.3026 26.7846 17.11 27.0295 17.7968 27.4884C18.4836 27.9473 19.0188 28.5995 19.3349 29.3626C19.651 30.1257 19.7337 30.9654 19.5726 31.7755C19.4114 32.5856 19.0137 33.3298 18.4296 33.9138C17.8456 34.4979 17.1015 34.8956 16.2914 35.0567C15.4813 35.2179 14.6416 35.1352 13.8785 34.8191C13.1154 34.503 12.4631 33.9677 12.0043 33.281C11.5454 32.5942 11.3004 31.7868 11.3004 30.9608C11.2957 30.4111 11.4005 29.8659 11.6087 29.3571C11.8169 28.8483 12.1244 28.386 12.5131 27.9973C12.9018 27.6085 13.3641 27.3011 13.8729 27.0929C14.3817 26.8847 14.9269 26.7799 15.4766 26.7846Z" fill="#FEAD15"/>
<path d="M41.0646 47.5134C44.6943 47.5134 47.6368 44.5709 47.6368 40.9412C47.6368 37.3115 44.6943 34.369 41.0646 34.369C37.4349 34.369 34.4924 37.3115 34.4924 40.9412C34.4924 44.5709 37.4349 47.5134 41.0646 47.5134Z" fill="#2B7A50"/>
</svg>
