<svg width="17" height="17" viewBox="0 0 17 17" fill="none" xmlns="http://www.w3.org/2000/svg">
<path d="M9.71993 8.91175C9.71993 6.13237 8.74083 4.88481 8.2039 4.39526C8.10915 4.30051 7.93544 4.37947 7.95123 4.5216C8.04598 6.085 6.07199 6.4798 6.07199 8.92754V8.94333C6.07199 10.4436 7.20901 11.6595 8.5987 11.6595C9.98839 11.6595 11.1254 10.4436 11.1254 8.94333V8.92754C11.1254 8.2327 10.8569 7.56944 10.6043 7.0641C10.5411 6.96935 10.399 7.00093 10.4148 7.09568C10.9043 9.24338 9.71993 10.5383 9.71993 8.91175ZM6.70367 14.7706C6.6405 14.7706 6.57733 14.739 6.52996 14.6916L0.0710636 8.2327C-0.0236879 8.13795 -0.0236879 7.98003 0.0710636 7.88528L6.89317 1.06317C6.94055 1.03158 6.98792 1 7.05109 1H9.00929C9.11983 1 9.19879 1.07896 9.23038 1.14213C9.26196 1.22109 9.26196 1.31584 9.16721 1.41059L2.77148 7.82211C2.64515 7.94844 2.64515 8.15374 2.77148 8.28007L7.84069 13.3651C7.93544 13.4598 7.93544 13.6177 7.84069 13.7125L6.86159 14.6916C6.83 14.739 6.76684 14.7706 6.70367 14.7706ZM7.99861 15.8918C7.88806 15.8918 7.8091 15.8128 7.77752 15.7497C7.74594 15.6707 7.74594 15.5759 7.84069 15.4812L14.2522 9.06967C14.3154 9.0065 14.347 8.92754 14.347 8.83279C14.347 8.73804 14.3154 8.65908 14.2522 8.59591L9.16721 3.51091C9.07246 3.41616 9.07246 3.25824 9.16721 3.16349L10.1463 2.18439C10.1937 2.13702 10.2411 2.10543 10.32 2.10543C10.399 2.10543 10.4306 2.15281 10.4779 2.20019L16.921 8.65908C16.9684 8.70646 17 8.75383 17 8.83279C17 8.91175 16.9684 8.95913 16.921 9.0065L10.0989 15.8286C10.0516 15.876 10.0042 15.9076 9.92522 15.9076L7.99861 15.8918Z" fill="#FF6600"/>
</svg>
